<svg width="512" height="512" viewBox="0 0 512 512" fill="none" xmlns="http://www.w3.org/2000/svg">
  <rect x="0" y="0" width="512" height="512" rx="64" fill="#0F172A"/>
  <path d="M170 136C146 136 128 154 128 178V206C128 226 114 242 94 246C114 250 128 266 128 286V334C128 358 146 376 170 376" stroke="#38BDF8" stroke-width="18" stroke-linecap="round"/>
  <path d="M342 136C366 136 384 154 384 178V206C384 226 398 242 418 246C398 250 384 266 384 286V334C384 358 366 376 342 376" stroke="#38BDF8" stroke-width="18" stroke-linecap="round"/>
  <circle cx="256" cy="208" r="22" fill="#F8FAFC"/>
  <circle cx="256" cy="304" r="22" fill="#F8FAFC"/>
  <path d="M256 230V282" stroke="#F8FAFC" stroke-width="14" stroke-linecap="round"/>
  <circle cx="200" cy="256" r="14" fill="#94A3B8"/>
  <circle cx="312" cy="256" r="14" fill="#94A3B8"/>
  <path d="M214 256H242" stroke="#94A3B8" stroke-width="10" stroke-linecap="round"/>
  <path d="M270 256H298" stroke="#94A3B8" stroke-width="10" stroke-linecap="round"/>
</svg>
